#!OML:ASF F:\VICON\USERDATA\INSTALL\rory3\rory3.ASF
:FULLY-SPECIFIED
:DEGREES
1
root -1.34681 17.8807 46.5181 -179.119 8.4775 -175.293
lowerback 21.1403 0.150697 4.63241
upperback 3.89232 2.97166 6.70324
thorax -7.74965 1.87541 3.79977
lowerneck -11.8782 -3.13029 -2.65535
upperneck 19.8618 -2.25845 -3.77508
head 8.11066 -1.36789 -1.00901
rclavicle -2.70347e-014 -7.95139e-015
rhumerus -8.19758 -31.8998 -64.1089
rradius 27.8179
rwrist 6.00987
rhand -7.2364 0.13308
rfingers 7.12502
rthumb 18.6434 -28.9935
lclavicle -2.70347e-014 -7.95139e-015
lhumerus -40.4601 0.647605 89.4941
lradius 46.1754
lwrist 6.04572
lhand -6.24824 51.6384
lfingers 7.12502
lthumb 19.5937 80.671
rfemur 1.19433 5.45116 29.6779
rtibia 29.0044
rfoot -24.829 -14.5236
rtoes 6.84217
lfemur -34.0322 -4.61623 -14.9255
ltibia 39.4372
lfoot -5.12499 6.44728
ltoes -3.19251
2
root -1.33426 17.8728 46.4565 -178.882 8.00022 -174.994
lowerback 22.1418 0.158495 4.64791
upperback 3.3008 3.16862 7.06199
thorax -8.97384 1.9613 4.13153
lowerneck -11.3825 -3.21575 -2.85528
upperneck 19.9262 -2.2887 -3.86905
head 8.04558 -1.38493 -1.00067
rclavicle -2.78299e-014 -6.04305e-014
rhumerus -9.36312 -34.2899 -63.0224
rradius 26.1471
rwrist 2.16289
rhand -8.14537 -1.39655
rfingers 7.12502
rthumb 17.769 -30.6047
lclavicle -2.78299e-014 -6.04305e-014
lhumerus -41.3328 0.579194 89.8109
lradius 46.7195
lwrist 6.02604
lhand -6.08285 51.6169
lfingers 7.12502
lthumb 19.7527 80.6332
rfemur 1.67714 5.41849 30.1458
rtibia 28.1069
rfoot -24.6464 -14.8882
rtoes 7.44667
lfemur -34.5663 -4.96653 -14.4108
ltibia 37.8132
lfoot -4.02855 6.31183
ltoes -3.78445
3
root -1.34427 17.9 46.3199 -178.751 8.7992 -175.154
lowerback 21.346 0.483766 4.6062
upperback 3.69137 3.48637 7.03466
thorax -8.12755 2.12956 4.03571
lowerneck -11.2805 -3.20784 -2.87086
upperneck 19.5449 -2.3243 -3.85541
head 7.90008 -1.40536 -0.991664
rclavicle 3.1408e-014 1.59028e-014
rhumerus -9.45778 -38.2204 -62.6902
rradius 24.4301
rwrist 0.618611
rhand -9.08025 -2.1524
rfingers 7.12502
rthumb 16.8692 -31.4397
lclavicle 3.1408e-014 1.59028e-014
lhumerus -41.134 0.548651 89.8018
lradius 47.2835
lwrist 6.19647
lhand -5.8158 51.6649
lfingers 7.12502
lthumb 20.0094 80.6546
rfemur 2.5021 5.86607 29.7351
rtibia 27.1068
rfoot -24.4628 -14.4094
rtoes 7.1982
lfemur -34.4007 -5.27112 -14.284
ltibia 36.1587
lfoot -4.25806 7.33161
ltoes -2.65504
4
root -1.35063 17.9079 46.207 -178.693 9.00706 -175.201
lowerback 21.3386 0.585259 4.62511
upperback 3.66941 3.64068 7.12611
thorax -8.16096 2.20675 4.08262
lowerneck -10.8214 -3.23015 -3.03896
upperneck 19.3453 -2.32082 -3.9202
head 7.75416 -1.40805 -0.973849
rclavicle 1.03368e-014 -2.22639e-014
rhumerus -10.4258 -41.6247 -61.7904
rradius 23.2779
rwrist -0.750362
rhand -10.0021 -2.81897
rfingers 7.12502
rthumb 15.9816 -32.1797
lclavicle 1.03368e-014 -2.22639e-014
lhumerus -41.3438 0.778531 89.7865
lradius 47.5196
lwrist 6.31802
lhand -5.69301 50.9938
lfingers 7.12502
lthumb 20.1274 79.9711
rfemur 3.27227 5.897 29.5664
rtibia 26.2627
rfoot -24.2389 -14.2423
rtoes 6.31422
lfemur -34.3413 -5.69337 -14.0825
ltibia 34.5651
lfoot -4.14576 7.94089
ltoes -2.82579
5
root -1.35357 17.908 46.0992 -178.47 9.00802 -175.122
lowerback 20.9528 0.56621 4.91261
upperback 3.86565 3.64877 7.12201
thorax -7.72251 2.21871 3.91649
lowerneck -10.9456 -3.18146 -3.04043
upperneck 19.0921 -2.30897 -3.82819
head 7.69356 -1.40348 -0.942469
rclavicle -3.57812e-014 -1.62208e-013
rhumerus -11.0865 -44.884 -61.3669
rradius 22.5909
rwrist -2.37188
rhand -11.8302 -3.73164
rfingers 7.12502
rthumb 14.2206 -33.2248
lclavicle -3.57812e-014 -1.62208e-013
lhumerus -41.0416 0.962101 89.5437
lradius 47.6868
lwrist 6.58683
lhand -5.81121 50.3382
lfingers 7.12502
lthumb 20.0138 79.3275
rfemur 3.81211 5.88969 29.5774
rtibia 25.4974
rfoot -23.8981 -14.2793
rtoes 5.49381
lfemur -34.4871 -6.17216 -13.712
ltibia 32.9921
lfoot -4.52473 8.36859
ltoes -2.24873
6
root -1.34943 17.9048 46.0042 -178.275 8.78804 -175.204
lowerback 20.882 0.62839 4.96927
upperback 4.02979 3.73637 7.0788
thorax -7.50152 2.26981 3.81285
lowerneck -11.6242 -3.24675 -2.91035
upperneck 19.1482 -2.4426 -3.75525
head 7.83114 -1.47225 -0.967109
rclavicle -3.4191e-014 -2.22639e-014
rhumerus -12.0476 -48.0169 -60.7404
rradius 22.3239
rwrist -3.58859
rhand -13.5567 -4.39907
rfingers 7.12502
rthumb 12.5565 -34.0018
lclavicle -3.4191e-014 -2.22639e-014
lhumerus -40.4988 0.80998 89.3644
lradius 47.7284
lwrist 6.99093
lhand -6.10286 49.7861
lfingers 7.12502
lthumb 19.7335 78.8044
rfemur 4.19999 5.90082 29.4951
rtibia 24.9851
rfoot -23.899 -14.3096
rtoes 5.26212
lfemur -34.7419 -6.59205 -13.5462
ltibia 31.5948
lfoot -4.98515 8.47738
ltoes -1.33091
7
root -1.33916 17.8982 45.9185 -178.028 8.43522 -175.235
lowerback 20.7923 0.570748 4.95174
upperback 3.92394 3.65449 7.12404
thorax -7.57102 2.22746 3.89704
lowerneck -10.8544 -3.18919 -3.07095
upperneck 18.5056 -2.45434 -3.53137
head 7.48654 -1.45835 -0.847979
rclavicle 3.18055e-015 4.77083e-014
rhumerus -13.7203 -49.928 -59.6573
rradius 22.3639
rwrist -4.67145
rhand -14.9676 -4.48662
rfingers 7.12502
rthumb 11.196 -34.1679
lclavicle 3.18055e-015 4.77083e-014
lhumerus -40.7167 1.09968 89.0623
lradius 48.0496
lwrist 7.22318
lhand -5.78805 49.9279
lfingers 7.12502
lthumb 20.0361 78.9149
rfemur 4.5093 5.84916 29.5258
rtibia 24.5066
rfoot -23.5718 -14.399
rtoes 4.01137
lfemur -35.1124 -7.07189 -13.2928
ltibia 30.3656
lfoot -5.4059 8.40579
ltoes -0.202878
8
root -1.33466 17.8943 45.8201 -177.765 8.2234 -175.193
lowerback 21.3733 0.634827 4.87105
upperback 3.56553 3.81336 7.27446
thorax -8.30119 2.2923 4.05674
lowerneck -10.9032 -3.25753 -3.09351
upperneck 18.5669 -2.48952 -3.72053
head 7.51385 -1.49052 -0.91049
rclavicle 9.54166e-015 7.95139e-014
rhumerus -16.0062 -50.8198 -57.9953
rradius 22.7537
rwrist -6.45064
rhand -16.2954 -4.31597
rfingers 7.12502
rthumb 9.91513 -34.0625
lclavicle 9.54166e-015 7.95139e-014
lhumerus -41.2884 1.42402 88.9685
lradius 48.3841
lwrist 7.39263
lhand -5.78205 50.2182
lfingers 7.12502
lthumb 20.0419 79.2045
rfemur 4.86637 5.9964 29.6057
rtibia 24.1034
rfoot -23.2865 -14.3434
rtoes 2.99651
lfemur -35.3438 -7.66395 -12.89
ltibia 29.2251
lfoot -6.05629 8.54585
ltoes 1.411
9
root -1.32927 17.8911 45.7044 -177.612 8.2324 -175.053
lowerback 21.0803 0.682553 5.06426
upperback 3.95585 3.91283 7.30391
thorax -7.70936 2.36686 3.95377
lowerneck -11.9764 -3.28869 -2.89708
upperneck 18.6229 -2.52874 -3.90722
head 7.71772 -1.54201 -1.02941
rclavicle 2.54444e-014 1.25632e-013
rhumerus -17.0078 -51.9488 -57.5655
rradius 23.4625
rwrist -8.50579
rhand -17.2671 -4.32984
rfingers 7.12502
rthumb 8.9776 -34.1188
lclavicle 2.54444e-014 1.25632e-013
lhumerus -40.5121 1.63558 88.7086
lradius 48.2988
lwrist 7.9104
lhand -6.1259 50.5631
lfingers 7.12502
lthumb 19.7113 79.5838
rfemur 5.41585 6.48612 29.8105
rtibia 23.7111
rfoot -23.3636 -14.0489
rtoes 3.76202
lfemur -35.4131 -8.15359 -12.399
ltibia 28.222
lfoot -6.1779 8.85927
ltoes -0.234987
10
root -1.32643 17.8904 45.588 -177.478 8.18213 -175.216
lowerback 21.0214 0.750522 4.926
upperback 4.0121 3.95481 7.27175
thorax -7.62315 2.39022 3.98653
lowerneck -12.2587 -3.29397 -2.90006
upperneck 18.6001 -2.55782 -3.8282
head 7.76141 -1.55798 -1.0115
rclavicle -7.95139e-016 -6.36111e-015
rhumerus -18.8034 -52.2219 -56.6397
rradius 24.4642
rwrist -10.9453
rhand -17.4957 -4.057
rfingers 7.12502
rthumb 8.75703 -33.8553
lclavicle -7.95139e-016 -6.36111e-015
lhumerus -40.4309 2.09356 88.3627
lradius 48.2254
lwrist 8.41138
lhand -6.42026 50.6996
lfingers 7.12502
lthumb 19.4283 79.749
rfemur 5.91831 6.85025 29.657
rtibia 23.305
rfoot -23.3777 -13.9525
rtoes 3.88151
lfemur -35.6239 -8.52731 -12.3698
ltibia 27.393
lfoot -5.9798 9.16777
ltoes -3.94591
11
root -1.32298 17.8822 45.4761 -177.479 8.00262 -175.413
lowerback 21.2073 0.698864 4.71828
upperback 3.89038 3.85244 7.26412
thorax -7.86335 2.33578 4.12196
lowerneck -11.779 -3.21605 -3.07922
upperneck 18.2733 -2.47665 -3.70314
head 7.5734 -1.51143 -0.92018
rclavicle 7.95139e-015 8.5875e-014
rhumerus -20.9354 -51.5855 -55.5034
rradius 25.5863
rwrist -13.6064
rhand -18.3424 -4.24636
rfingers 7.12502
rthumb 7.93986 -34.0772
lclavicle 7.95139e-015 8.5875e-014
lhumerus -40.8833 2.61678 87.9335
lradius 48.263
lwrist 9.1584
lhand -6.58541 50.5637
lfingers 7.12502
lthumb 19.2695 79.629
rfemur 6.60372 7.07669 29.5231
rtibia 22.7909
rfoot -23.1489 -14.1466
rtoes 3.06406
lfemur -35.7727 -8.80966 -12.4833
ltibia 26.8384
lfoot -5.59081 9.16385
ltoes -6.12825
12
root -1.31462 17.8633 45.3692 -177.517 7.6426 -175.555
lowerback 21.6385 0.638186 4.51284
upperback 3.69286 3.7768 7.29751
thorax -8.32317 2.295 4.29184
lowerneck -11.3167 -3.14469 -3.21414
upperneck 17.9723 -2.40137 -3.62346
head 7.39617 -1.46808 -0.853017
rclavicle 3.18055e-015 5.725e-014
rhumerus -23.3488 -51.3862 -54.0294
rradius 26.7154
rwrist -15.8885
rhand -19.427 -4.52229
rfingers 7.12502
rthumb 6.89294 -34.3901
lclavicle 3.18055e-015 5.725e-014
lhumerus -41.468 3.078 87.5389
lradius 48.3482
lwrist 9.81482
lhand -6.79379 50.242
lfingers 7.12502
lthumb 19.0691 79.3272
rfemur 7.20763 7.07293 29.4813
rtibia 22.4879
rfoot -22.9594 -14.3001
rtoes 2.7171
lfemur -35.8346 -9.03705 -12.5828
ltibia 26.4098
lfoot -5.46584 8.73795
ltoes -5.338
13
root -1.32173 17.8585 45.211 -177.409 8.12556 -175.466
lowerback 21.5548 0.916492 4.6107
upperback 3.69386 4.14554 7.28053
thorax -8.28816 2.46464 4.1122
lowerneck -11.4398 -3.23225 -3.22793
upperneck 18.1301 -2.51969 -3.53372
head 7.47062 -1.51928 -0.836849
rclavicle -2.54444e-014 -2.8625e-014
rhumerus -25.9257 -51.6448 -52.3529
rradius 27.9602
rwrist -17.8878
rhand -19.8189 -4.66579
rfingers 7.12502
rthumb 6.51465 -34.5456
lclavicle -2.54444e-014 -2.8625e-014
lhumerus -41.7489 3.25243 87.1952
lradius 48.2774
lwrist 10.5054
lhand -7.12765 49.9109
lfingers 7.12502
lthumb 18.748 79.0274
rfemur 7.79599 7.36434 29.3846
rtibia 22.1912
rfoot -22.7835 -13.911
rtoes 1.74218
lfemur -35.738 -9.45117 -12.2296
ltibia 26.3236
lfoot -6.05375 9.37878
ltoes -2.46687
14
root -1.30175 17.8392 45.1271 -177.248 7.17631 -175.497
lowerback 21.6815 0.702903 4.53301
upperback 3.81093 3.88948 7.31817
thorax -8.22228 2.36068 4.26834
lowerneck -11.9556 -3.23834 -3.0596
upperneck 17.8747 -2.58144 -3.59109
head 7.47382 -1.56101 -0.896884
rclavicle -5.56597e-015 -1.11319e-014
rhumerus -27.3291 -52.486 -51.5793
rradius 29.0311
rwrist -19.6382
rhand -19.7335 -4.66661
rfingers 7.12502
rthumb 6.59713 -34.5439
lclavicle -5.56597e-015 -1.11319e-014
lhumerus -41.2856 3.57873 86.8196
lradius 48.1816
lwrist 11.2747
lhand -7.35684 50.2501
lfingers 7.12502
lthumb 18.5276 79.3878
rfemur 8.01802 6.93365 29.6035
rtibia 22.0418
rfoot -22.5673 -14.3649
rtoes 1.16434
lfemur -36.2612 -9.01128 -12.5964
ltibia 26.4248
lfoot -6.14858 7.48818
ltoes -5.94579
